<mxfile host="app.diagrams.net" agent="Mozilla/5.0 (X11; Linux x86_64; rv:143.0) Gecko/20100101 Firefox/143.0" version="28.2.3">
  <diagram name="Page-1" id="xyOmEaA9XgBoMNlBmKNR">
    <mxGraphModel dx="1141" dy="728" grid="1" gridSize="10" guides="1" tooltips="1" connect="1" arrows="1" fold="1" page="1" pageScale="1" pageWidth="850" pageHeight="1100" math="0" shadow="0">
      <root>
        <mxCell id="0" />
        <mxCell id="1" parent="0" />
        <mxCell id="JLDs4KxvLvls9wI8FoTS-49" value="" style="edgeStyle=orthogonalEdgeStyle;rounded=0;orthogonalLoop=1;jettySize=auto;html=1;" edge="1" parent="1" source="hPKtqtX5Fvblj8R9O3gZ-1" target="hPKtqtX5Fvblj8R9O3gZ-11">
          <mxGeometry relative="1" as="geometry" />
        </mxCell>
        <mxCell id="hPKtqtX5Fvblj8R9O3gZ-1" value="&lt;div&gt;Enters the app&lt;/div&gt;&lt;div&gt;and reads&lt;/div&gt;&lt;div&gt;current state&lt;/div&gt;" style="shape=parallelogram;perimeter=parallelogramPerimeter;whiteSpace=wrap;html=1;fixedSize=1;" parent="1" vertex="1">
          <mxGeometry x="305" y="180" width="120" height="60" as="geometry" />
        </mxCell>
        <mxCell id="hPKtqtX5Fvblj8R9O3gZ-14" value="" style="edgeStyle=orthogonalEdgeStyle;rounded=0;orthogonalLoop=1;jettySize=auto;html=1;startArrow=classic;startFill=1;" parent="1" source="hPKtqtX5Fvblj8R9O3gZ-11" target="hPKtqtX5Fvblj8R9O3gZ-13" edge="1">
          <mxGeometry relative="1" as="geometry" />
        </mxCell>
        <mxCell id="hPKtqtX5Fvblj8R9O3gZ-42" value="home" style="edgeLabel;html=1;align=center;verticalAlign=middle;resizable=0;points=[];" parent="hPKtqtX5Fvblj8R9O3gZ-14" vertex="1" connectable="0">
          <mxGeometry x="-0.1235" y="2" relative="1" as="geometry">
            <mxPoint x="-3" y="-12" as="offset" />
          </mxGeometry>
        </mxCell>
        <mxCell id="hPKtqtX5Fvblj8R9O3gZ-21" value="" style="edgeStyle=orthogonalEdgeStyle;rounded=0;orthogonalLoop=1;jettySize=auto;html=1;startArrow=classic;startFill=1;" parent="1" source="hPKtqtX5Fvblj8R9O3gZ-11" target="hPKtqtX5Fvblj8R9O3gZ-20" edge="1">
          <mxGeometry relative="1" as="geometry" />
        </mxCell>
        <mxCell id="hPKtqtX5Fvblj8R9O3gZ-43" value="profile" style="edgeLabel;html=1;align=center;verticalAlign=middle;resizable=0;points=[];" parent="hPKtqtX5Fvblj8R9O3gZ-21" vertex="1" connectable="0">
          <mxGeometry x="-0.4241" relative="1" as="geometry">
            <mxPoint y="-10" as="offset" />
          </mxGeometry>
        </mxCell>
        <mxCell id="hPKtqtX5Fvblj8R9O3gZ-34" style="edgeStyle=orthogonalEdgeStyle;rounded=0;orthogonalLoop=1;jettySize=auto;html=1;entryX=0.5;entryY=0;entryDx=0;entryDy=0;" parent="1" source="hPKtqtX5Fvblj8R9O3gZ-11" target="hPKtqtX5Fvblj8R9O3gZ-33" edge="1">
          <mxGeometry relative="1" as="geometry" />
        </mxCell>
        <mxCell id="hPKtqtX5Fvblj8R9O3gZ-39" value="exit trigger" style="edgeLabel;html=1;align=center;verticalAlign=middle;resizable=0;points=[];" parent="hPKtqtX5Fvblj8R9O3gZ-34" vertex="1" connectable="0">
          <mxGeometry x="-0.0527" y="-3" relative="1" as="geometry">
            <mxPoint x="58" y="122" as="offset" />
          </mxGeometry>
        </mxCell>
        <mxCell id="JLDs4KxvLvls9wI8FoTS-59" value="" style="edgeStyle=orthogonalEdgeStyle;rounded=0;orthogonalLoop=1;jettySize=auto;html=1;startArrow=classic;startFill=1;" edge="1" parent="1" source="hPKtqtX5Fvblj8R9O3gZ-11" target="JLDs4KxvLvls9wI8FoTS-58">
          <mxGeometry relative="1" as="geometry">
            <Array as="points">
              <mxPoint x="400" y="390" />
            </Array>
          </mxGeometry>
        </mxCell>
        <mxCell id="JLDs4KxvLvls9wI8FoTS-63" value="administrator" style="edgeLabel;html=1;align=center;verticalAlign=middle;resizable=0;points=[];" vertex="1" connectable="0" parent="JLDs4KxvLvls9wI8FoTS-59">
          <mxGeometry x="0.0203" y="1" relative="1" as="geometry">
            <mxPoint x="42" y="-16" as="offset" />
          </mxGeometry>
        </mxCell>
        <mxCell id="JLDs4KxvLvls9wI8FoTS-90" style="edgeStyle=orthogonalEdgeStyle;rounded=0;orthogonalLoop=1;jettySize=auto;html=1;startArrow=classic;startFill=1;" edge="1" parent="1" source="hPKtqtX5Fvblj8R9O3gZ-11" target="JLDs4KxvLvls9wI8FoTS-87">
          <mxGeometry relative="1" as="geometry">
            <Array as="points">
              <mxPoint x="650" y="350" />
            </Array>
          </mxGeometry>
        </mxCell>
        <mxCell id="JLDs4KxvLvls9wI8FoTS-101" value="services" style="edgeLabel;html=1;align=center;verticalAlign=middle;resizable=0;points=[];" vertex="1" connectable="0" parent="JLDs4KxvLvls9wI8FoTS-90">
          <mxGeometry x="-0.0571" y="2" relative="1" as="geometry">
            <mxPoint y="-8" as="offset" />
          </mxGeometry>
        </mxCell>
        <mxCell id="hPKtqtX5Fvblj8R9O3gZ-11" value="navigation" style="rhombus;whiteSpace=wrap;html=1;" parent="1" vertex="1">
          <mxGeometry x="325" y="280" width="80" height="80" as="geometry" />
        </mxCell>
        <mxCell id="JLDs4KxvLvls9wI8FoTS-51" value="" style="edgeStyle=orthogonalEdgeStyle;rounded=0;orthogonalLoop=1;jettySize=auto;html=1;" edge="1" parent="1" source="hPKtqtX5Fvblj8R9O3gZ-13" target="JLDs4KxvLvls9wI8FoTS-50">
          <mxGeometry relative="1" as="geometry" />
        </mxCell>
        <mxCell id="hPKtqtX5Fvblj8R9O3gZ-13" value="&lt;div&gt;Show Faculties&lt;/div&gt;&lt;div&gt;list&lt;/div&gt;" style="whiteSpace=wrap;html=1;" parent="1" vertex="1">
          <mxGeometry x="150" y="290" width="120" height="60" as="geometry" />
        </mxCell>
        <mxCell id="hPKtqtX5Fvblj8R9O3gZ-23" value="" style="edgeStyle=orthogonalEdgeStyle;rounded=0;orthogonalLoop=1;jettySize=auto;html=1;" parent="1" source="hPKtqtX5Fvblj8R9O3gZ-20" target="hPKtqtX5Fvblj8R9O3gZ-22" edge="1">
          <mxGeometry relative="1" as="geometry" />
        </mxCell>
        <mxCell id="hPKtqtX5Fvblj8R9O3gZ-20" value="Access Settings" style="whiteSpace=wrap;html=1;" parent="1" vertex="1">
          <mxGeometry x="440" y="180" width="120" height="60" as="geometry" />
        </mxCell>
        <mxCell id="hPKtqtX5Fvblj8R9O3gZ-36" value="" style="edgeStyle=orthogonalEdgeStyle;rounded=0;orthogonalLoop=1;jettySize=auto;html=1;" parent="1" source="hPKtqtX5Fvblj8R9O3gZ-22" target="hPKtqtX5Fvblj8R9O3gZ-35" edge="1">
          <mxGeometry relative="1" as="geometry" />
        </mxCell>
        <mxCell id="hPKtqtX5Fvblj8R9O3gZ-37" value="Edit profile" style="edgeLabel;html=1;align=center;verticalAlign=middle;resizable=0;points=[];" parent="hPKtqtX5Fvblj8R9O3gZ-36" vertex="1" connectable="0">
          <mxGeometry x="-0.2786" relative="1" as="geometry">
            <mxPoint x="40" as="offset" />
          </mxGeometry>
        </mxCell>
        <mxCell id="JLDs4KxvLvls9wI8FoTS-68" value="" style="edgeStyle=orthogonalEdgeStyle;rounded=0;orthogonalLoop=1;jettySize=auto;html=1;" edge="1" parent="1" source="hPKtqtX5Fvblj8R9O3gZ-22" target="JLDs4KxvLvls9wI8FoTS-10">
          <mxGeometry relative="1" as="geometry" />
        </mxCell>
        <mxCell id="hPKtqtX5Fvblj8R9O3gZ-22" value="&lt;div&gt;Manages&lt;/div&gt;&lt;div&gt;Profile&lt;/div&gt;" style="rhombus;whiteSpace=wrap;html=1;" parent="1" vertex="1">
          <mxGeometry x="600" y="170" width="80" height="80" as="geometry" />
        </mxCell>
        <mxCell id="hPKtqtX5Fvblj8R9O3gZ-32" style="edgeStyle=orthogonalEdgeStyle;rounded=0;orthogonalLoop=1;jettySize=auto;html=1;entryX=0.5;entryY=0;entryDx=0;entryDy=0;" parent="1" source="hPKtqtX5Fvblj8R9O3gZ-30" target="hPKtqtX5Fvblj8R9O3gZ-1" edge="1">
          <mxGeometry relative="1" as="geometry" />
        </mxCell>
        <mxCell id="hPKtqtX5Fvblj8R9O3gZ-30" value="Start" style="ellipse;whiteSpace=wrap;html=1;" parent="1" vertex="1">
          <mxGeometry x="305" y="110" width="120" height="50" as="geometry" />
        </mxCell>
        <mxCell id="hPKtqtX5Fvblj8R9O3gZ-33" value="End" style="ellipse;whiteSpace=wrap;html=1;" parent="1" vertex="1">
          <mxGeometry x="305" y="610" width="120" height="50" as="geometry" />
        </mxCell>
        <mxCell id="hPKtqtX5Fvblj8R9O3gZ-35" value="&lt;div&gt;Edit profile&lt;/div&gt;&lt;div&gt;and preferences&lt;/div&gt;" style="whiteSpace=wrap;html=1;" parent="1" vertex="1">
          <mxGeometry x="580" y="280" width="120" height="60" as="geometry" />
        </mxCell>
        <mxCell id="JLDs4KxvLvls9wI8FoTS-8" value="" style="edgeStyle=orthogonalEdgeStyle;rounded=0;orthogonalLoop=1;jettySize=auto;html=1;" edge="1" parent="1" source="JLDs4KxvLvls9wI8FoTS-10">
          <mxGeometry relative="1" as="geometry">
            <mxPoint x="770" y="300" as="targetPoint" />
          </mxGeometry>
        </mxCell>
        <mxCell id="JLDs4KxvLvls9wI8FoTS-9" value="user signup" style="edgeLabel;html=1;align=center;verticalAlign=middle;resizable=0;points=[];" vertex="1" connectable="0" parent="JLDs4KxvLvls9wI8FoTS-8">
          <mxGeometry x="-0.0586" y="1" relative="1" as="geometry">
            <mxPoint as="offset" />
          </mxGeometry>
        </mxCell>
        <mxCell id="JLDs4KxvLvls9wI8FoTS-74" style="edgeStyle=orthogonalEdgeStyle;rounded=0;orthogonalLoop=1;jettySize=auto;html=1;" edge="1" parent="1" source="JLDs4KxvLvls9wI8FoTS-10" target="hPKtqtX5Fvblj8R9O3gZ-22">
          <mxGeometry relative="1" as="geometry" />
        </mxCell>
        <mxCell id="JLDs4KxvLvls9wI8FoTS-103" value="admin" style="edgeLabel;html=1;align=center;verticalAlign=middle;resizable=0;points=[];" vertex="1" connectable="0" parent="JLDs4KxvLvls9wI8FoTS-74">
          <mxGeometry x="0.1733" relative="1" as="geometry">
            <mxPoint x="-1" y="-10" as="offset" />
          </mxGeometry>
        </mxCell>
        <mxCell id="JLDs4KxvLvls9wI8FoTS-79" style="edgeStyle=orthogonalEdgeStyle;rounded=0;orthogonalLoop=1;jettySize=auto;html=1;" edge="1" parent="1" source="JLDs4KxvLvls9wI8FoTS-10">
          <mxGeometry relative="1" as="geometry">
            <mxPoint x="870" y="330" as="targetPoint" />
            <Array as="points">
              <mxPoint x="850" y="210" />
              <mxPoint x="850" y="330" />
            </Array>
          </mxGeometry>
        </mxCell>
        <mxCell id="JLDs4KxvLvls9wI8FoTS-10" value="&lt;div&gt;Select auth&lt;/div&gt;" style="rhombus;whiteSpace=wrap;html=1;" vertex="1" parent="1">
          <mxGeometry x="730" y="170" width="80" height="80" as="geometry" />
        </mxCell>
        <mxCell id="JLDs4KxvLvls9wI8FoTS-65" value="" style="edgeStyle=orthogonalEdgeStyle;rounded=0;orthogonalLoop=1;jettySize=auto;html=1;" edge="1" parent="1" source="JLDs4KxvLvls9wI8FoTS-15" target="JLDs4KxvLvls9wI8FoTS-27">
          <mxGeometry relative="1" as="geometry" />
        </mxCell>
        <mxCell id="JLDs4KxvLvls9wI8FoTS-15" value="Data synchronization" style="whiteSpace=wrap;html=1;" vertex="1" parent="1">
          <mxGeometry x="710" y="385" width="120" height="60" as="geometry" />
        </mxCell>
        <mxCell id="JLDs4KxvLvls9wI8FoTS-69" value="" style="edgeStyle=orthogonalEdgeStyle;rounded=0;orthogonalLoop=1;jettySize=auto;html=1;" edge="1" parent="1" source="JLDs4KxvLvls9wI8FoTS-27" target="JLDs4KxvLvls9wI8FoTS-40">
          <mxGeometry relative="1" as="geometry" />
        </mxCell>
        <mxCell id="JLDs4KxvLvls9wI8FoTS-75" value="" style="edgeStyle=orthogonalEdgeStyle;rounded=0;orthogonalLoop=1;jettySize=auto;html=1;" edge="1" parent="1" source="JLDs4KxvLvls9wI8FoTS-27" target="JLDs4KxvLvls9wI8FoTS-31">
          <mxGeometry relative="1" as="geometry">
            <Array as="points">
              <mxPoint x="1090" y="290" />
              <mxPoint x="1090" y="290" />
            </Array>
          </mxGeometry>
        </mxCell>
        <mxCell id="JLDs4KxvLvls9wI8FoTS-104" value="data&lt;br&gt;editor" style="edgeLabel;html=1;align=center;verticalAlign=middle;resizable=0;points=[];" vertex="1" connectable="0" parent="JLDs4KxvLvls9wI8FoTS-75">
          <mxGeometry x="-0.1051" y="1" relative="1" as="geometry">
            <mxPoint x="19" y="-2" as="offset" />
          </mxGeometry>
        </mxCell>
        <mxCell id="JLDs4KxvLvls9wI8FoTS-27" value="&lt;div&gt;admin pagebar&lt;/div&gt;&lt;div&gt;navigation&lt;/div&gt;" style="rhombus;whiteSpace=wrap;html=1;" vertex="1" parent="1">
          <mxGeometry x="1010" y="220" width="100" height="90" as="geometry" />
        </mxCell>
        <mxCell id="JLDs4KxvLvls9wI8FoTS-76" style="edgeStyle=orthogonalEdgeStyle;rounded=0;orthogonalLoop=1;jettySize=auto;html=1;" edge="1" parent="1" source="JLDs4KxvLvls9wI8FoTS-31" target="JLDs4KxvLvls9wI8FoTS-27">
          <mxGeometry relative="1" as="geometry">
            <Array as="points">
              <mxPoint x="1110" y="310" />
              <mxPoint x="1110" y="310" />
            </Array>
          </mxGeometry>
        </mxCell>
        <mxCell id="JLDs4KxvLvls9wI8FoTS-96" style="edgeStyle=orthogonalEdgeStyle;rounded=0;orthogonalLoop=1;jettySize=auto;html=1;entryX=1;entryY=0.5;entryDx=0;entryDy=0;" edge="1" parent="1" source="JLDs4KxvLvls9wI8FoTS-31" target="hPKtqtX5Fvblj8R9O3gZ-33">
          <mxGeometry relative="1" as="geometry" />
        </mxCell>
        <mxCell id="JLDs4KxvLvls9wI8FoTS-31" value="&lt;div&gt;Realtime&lt;/div&gt;&lt;div&gt;Database&lt;/div&gt;&lt;div&gt;Editor (WYSIWYG)&lt;/div&gt;" style="whiteSpace=wrap;html=1;" vertex="1" parent="1">
          <mxGeometry x="980" y="605" width="120" height="60" as="geometry" />
        </mxCell>
        <mxCell id="JLDs4KxvLvls9wI8FoTS-73" style="edgeStyle=orthogonalEdgeStyle;rounded=0;orthogonalLoop=1;jettySize=auto;html=1;" edge="1" parent="1" source="JLDs4KxvLvls9wI8FoTS-40" target="JLDs4KxvLvls9wI8FoTS-10">
          <mxGeometry relative="1" as="geometry" />
        </mxCell>
        <mxCell id="JLDs4KxvLvls9wI8FoTS-40" value="Log out" style="shape=parallelogram;perimeter=parallelogramPerimeter;whiteSpace=wrap;html=1;fixedSize=1;" vertex="1" parent="1">
          <mxGeometry x="860" y="180" width="120" height="60" as="geometry" />
        </mxCell>
        <mxCell id="JLDs4KxvLvls9wI8FoTS-67" value="" style="edgeStyle=orthogonalEdgeStyle;rounded=0;orthogonalLoop=1;jettySize=auto;html=1;" edge="1" parent="1" target="JLDs4KxvLvls9wI8FoTS-15">
          <mxGeometry relative="1" as="geometry">
            <mxPoint x="770" y="360" as="sourcePoint" />
          </mxGeometry>
        </mxCell>
        <mxCell id="JLDs4KxvLvls9wI8FoTS-52" style="edgeStyle=orthogonalEdgeStyle;rounded=0;orthogonalLoop=1;jettySize=auto;html=1;" edge="1" parent="1" source="JLDs4KxvLvls9wI8FoTS-50" target="hPKtqtX5Fvblj8R9O3gZ-13">
          <mxGeometry relative="1" as="geometry" />
        </mxCell>
        <mxCell id="JLDs4KxvLvls9wI8FoTS-53" style="edgeStyle=orthogonalEdgeStyle;rounded=0;orthogonalLoop=1;jettySize=auto;html=1;entryX=0;entryY=1;entryDx=0;entryDy=0;" edge="1" parent="1" source="JLDs4KxvLvls9wI8FoTS-50" target="hPKtqtX5Fvblj8R9O3gZ-11">
          <mxGeometry relative="1" as="geometry" />
        </mxCell>
        <mxCell id="JLDs4KxvLvls9wI8FoTS-50" value="&lt;div&gt;Individual&lt;/div&gt;&lt;div&gt;faculty&lt;/div&gt;" style="rounded=0;whiteSpace=wrap;html=1;" vertex="1" parent="1">
          <mxGeometry x="150" y="380" width="120" height="60" as="geometry" />
        </mxCell>
        <mxCell id="JLDs4KxvLvls9wI8FoTS-55" style="edgeStyle=orthogonalEdgeStyle;rounded=0;orthogonalLoop=1;jettySize=auto;html=1;entryX=0.797;entryY=1.033;entryDx=0;entryDy=0;entryPerimeter=0;" edge="1" parent="1" source="hPKtqtX5Fvblj8R9O3gZ-35" target="hPKtqtX5Fvblj8R9O3gZ-20">
          <mxGeometry relative="1" as="geometry" />
        </mxCell>
        <mxCell id="JLDs4KxvLvls9wI8FoTS-61" value="" style="edgeStyle=orthogonalEdgeStyle;rounded=0;orthogonalLoop=1;jettySize=auto;html=1;" edge="1" parent="1" source="JLDs4KxvLvls9wI8FoTS-58" target="JLDs4KxvLvls9wI8FoTS-60">
          <mxGeometry relative="1" as="geometry" />
        </mxCell>
        <mxCell id="JLDs4KxvLvls9wI8FoTS-58" value="&lt;div&gt;Show Administrator&lt;/div&gt;&lt;div&gt;Faculties list&lt;/div&gt;" style="whiteSpace=wrap;html=1;" vertex="1" parent="1">
          <mxGeometry x="450" y="360" width="120" height="60" as="geometry" />
        </mxCell>
        <mxCell id="JLDs4KxvLvls9wI8FoTS-62" style="edgeStyle=orthogonalEdgeStyle;rounded=0;orthogonalLoop=1;jettySize=auto;html=1;" edge="1" parent="1" source="JLDs4KxvLvls9wI8FoTS-60" target="JLDs4KxvLvls9wI8FoTS-58">
          <mxGeometry relative="1" as="geometry" />
        </mxCell>
        <mxCell id="JLDs4KxvLvls9wI8FoTS-64" style="edgeStyle=orthogonalEdgeStyle;rounded=0;orthogonalLoop=1;jettySize=auto;html=1;entryX=1;entryY=1;entryDx=0;entryDy=0;" edge="1" parent="1" source="JLDs4KxvLvls9wI8FoTS-60" target="hPKtqtX5Fvblj8R9O3gZ-11">
          <mxGeometry relative="1" as="geometry" />
        </mxCell>
        <mxCell id="JLDs4KxvLvls9wI8FoTS-60" value="Individual Administrator Faculty" style="whiteSpace=wrap;html=1;" vertex="1" parent="1">
          <mxGeometry x="450" y="450" width="120" height="60" as="geometry" />
        </mxCell>
        <mxCell id="JLDs4KxvLvls9wI8FoTS-80" style="edgeStyle=orthogonalEdgeStyle;rounded=0;orthogonalLoop=1;jettySize=auto;html=1;entryX=1;entryY=0.25;entryDx=0;entryDy=0;" edge="1" parent="1" target="JLDs4KxvLvls9wI8FoTS-15">
          <mxGeometry relative="1" as="geometry">
            <mxPoint x="930" y="360" as="sourcePoint" />
            <Array as="points">
              <mxPoint x="930" y="400" />
            </Array>
          </mxGeometry>
        </mxCell>
        <mxCell id="JLDs4KxvLvls9wI8FoTS-86" value="" style="edgeStyle=orthogonalEdgeStyle;rounded=0;orthogonalLoop=1;jettySize=auto;html=1;" edge="1" parent="1" source="JLDs4KxvLvls9wI8FoTS-87" target="JLDs4KxvLvls9wI8FoTS-89">
          <mxGeometry relative="1" as="geometry" />
        </mxCell>
        <mxCell id="JLDs4KxvLvls9wI8FoTS-87" value="&lt;div&gt;Show Service&lt;/div&gt;&lt;div&gt;Faculties list&lt;/div&gt;" style="whiteSpace=wrap;html=1;" vertex="1" parent="1">
          <mxGeometry x="590" y="460" width="120" height="60" as="geometry" />
        </mxCell>
        <mxCell id="JLDs4KxvLvls9wI8FoTS-88" style="edgeStyle=orthogonalEdgeStyle;rounded=0;orthogonalLoop=1;jettySize=auto;html=1;" edge="1" parent="1" source="JLDs4KxvLvls9wI8FoTS-89" target="JLDs4KxvLvls9wI8FoTS-87">
          <mxGeometry relative="1" as="geometry" />
        </mxCell>
        <mxCell id="JLDs4KxvLvls9wI8FoTS-89" value="Individual Services List" style="whiteSpace=wrap;html=1;" vertex="1" parent="1">
          <mxGeometry x="590" y="550" width="120" height="60" as="geometry" />
        </mxCell>
        <mxCell id="JLDs4KxvLvls9wI8FoTS-91" value="" style="edgeStyle=orthogonalEdgeStyle;rounded=0;orthogonalLoop=1;jettySize=auto;html=1;" edge="1" parent="1" source="JLDs4KxvLvls9wI8FoTS-92" target="JLDs4KxvLvls9wI8FoTS-94">
          <mxGeometry relative="1" as="geometry" />
        </mxCell>
        <mxCell id="JLDs4KxvLvls9wI8FoTS-92" value="&lt;div&gt;Show Extra Items&lt;/div&gt;" style="whiteSpace=wrap;html=1;" vertex="1" parent="1">
          <mxGeometry x="150" y="470" width="120" height="60" as="geometry" />
        </mxCell>
        <mxCell id="JLDs4KxvLvls9wI8FoTS-93" style="edgeStyle=orthogonalEdgeStyle;rounded=0;orthogonalLoop=1;jettySize=auto;html=1;" edge="1" parent="1" source="JLDs4KxvLvls9wI8FoTS-94" target="JLDs4KxvLvls9wI8FoTS-92">
          <mxGeometry relative="1" as="geometry" />
        </mxCell>
        <mxCell id="JLDs4KxvLvls9wI8FoTS-94" value="Individual Extra Componenets" style="whiteSpace=wrap;html=1;" vertex="1" parent="1">
          <mxGeometry x="150" y="560" width="120" height="60" as="geometry" />
        </mxCell>
        <mxCell id="JLDs4KxvLvls9wI8FoTS-95" style="edgeStyle=orthogonalEdgeStyle;rounded=0;orthogonalLoop=1;jettySize=auto;html=1;entryX=0.133;entryY=0.702;entryDx=0;entryDy=0;entryPerimeter=0;startArrow=classic;startFill=1;" edge="1" parent="1" source="JLDs4KxvLvls9wI8FoTS-92" target="hPKtqtX5Fvblj8R9O3gZ-11">
          <mxGeometry relative="1" as="geometry" />
        </mxCell>
        <mxCell id="JLDs4KxvLvls9wI8FoTS-102" value="extras" style="edgeLabel;html=1;align=center;verticalAlign=middle;resizable=0;points=[];" vertex="1" connectable="0" parent="JLDs4KxvLvls9wI8FoTS-95">
          <mxGeometry x="-0.7036" y="1" relative="1" as="geometry">
            <mxPoint y="-9" as="offset" />
          </mxGeometry>
        </mxCell>
        <mxCell id="JLDs4KxvLvls9wI8FoTS-98" value="User Signup" style="shape=parallelogram;perimeter=parallelogramPerimeter;whiteSpace=wrap;html=1;fixedSize=1;" vertex="1" parent="1">
          <mxGeometry x="710" y="300" width="120" height="60" as="geometry" />
        </mxCell>
        <mxCell id="JLDs4KxvLvls9wI8FoTS-99" value="User Login" style="shape=parallelogram;perimeter=parallelogramPerimeter;whiteSpace=wrap;html=1;fixedSize=1;" vertex="1" parent="1">
          <mxGeometry x="860" y="300" width="120" height="60" as="geometry" />
        </mxCell>
        <mxCell id="JLDs4KxvLvls9wI8FoTS-100" style="edgeStyle=orthogonalEdgeStyle;rounded=0;orthogonalLoop=1;jettySize=auto;html=1;entryX=0.404;entryY=0.838;entryDx=0;entryDy=0;entryPerimeter=0;" edge="1" parent="1" source="JLDs4KxvLvls9wI8FoTS-94" target="hPKtqtX5Fvblj8R9O3gZ-11">
          <mxGeometry relative="1" as="geometry">
            <Array as="points">
              <mxPoint x="357" y="570" />
            </Array>
          </mxGeometry>
        </mxCell>
        <mxCell id="JLDs4KxvLvls9wI8FoTS-105" style="edgeStyle=orthogonalEdgeStyle;rounded=0;orthogonalLoop=1;jettySize=auto;html=1;entryX=0.623;entryY=0.838;entryDx=0;entryDy=0;entryPerimeter=0;" edge="1" parent="1" source="JLDs4KxvLvls9wI8FoTS-89" target="hPKtqtX5Fvblj8R9O3gZ-11">
          <mxGeometry relative="1" as="geometry" />
        </mxCell>
      </root>
    </mxGraphModel>
  </diagram>
</mxfile>
